<?xml version="1.0" standalone="no"?>
<!DOCTYPE svg PUBLIC "-//W3C//DTD SVG 20010904//EN"
 "http://www.w3.org/TR/2001/REC-SVG-20010904/DTD/svg10.dtd">
<svg version="1.0" xmlns="http://www.w3.org/2000/svg"
 viewBox="0 0 2600.000000 2600.000000"
 preserveAspectRatio="xMidYMid meet">
<metadata>
Created by potrace 1.15, written by Peter Selinger 2001-2017
</metadata>
<g transform="translate(0.000000,2600.000000) scale(0.100000,-0.100000)"
fill="#000000" stroke="none">
<path d="M4835 19809 c-157 -26 -277 -89 -390 -203 -132 -133 -197 -292 -197
-481 0 -115 22 -208 74 -315 34 -68 59 -102 128 -170 91 -92 168 -139 295
-182 l70 -23 1066 -3 1067 -3 5 -22 c3 -12 220 -1465 482 -3228 l477 -3207
-510 -1458 c-280 -803 -515 -1476 -522 -1496 -18 -60 -28 -188 -19 -263 28
-227 171 -434 372 -534 102 -51 175 -70 294 -78 l92 -6 -74 -79 c-166 -176
-279 -401 -315 -628 -14 -94 -12 -294 5 -391 81 -461 438 -842 891 -950 454
-108 940 62 1218 424 167 218 248 453 249 722 2 324 -107 595 -332 828 l-74
77 2998 0 2998 0 -82 -85 c-289 -301 -395 -717 -286 -1125 104 -388 423 -713
810 -825 125 -36 204 -47 340 -47 656 -1 1185 530 1185 1187 0 310 -110 582
-328 816 l-72 76 143 6 c207 8 322 46 451 150 172 138 259 319 260 537 2 313
-180 562 -489 668 l-80 27 -4253 3 c-3663 2 -4253 4 -4250 16 2 8 143 413 313
900 l310 886 3696 0 c2610 0 3713 3 3755 11 224 41 428 208 513 419 12 30 384
1205 827 2610 534 1696 809 2581 816 2633 14 96 -1 225 -36 322 -73 200 -234
354 -450 429 l-61 21 -4882 3 -4881 2 -6 28 c-3 15 -53 347 -111 737 -58 391
-114 742 -126 780 -67 226 -235 391 -478 468 -66 22 -68 22 -1456 23 -764 1
-1413 -2 -1440 -7z"/>
</g>
</svg>
