<svg width="520.6025146484375px" height="124.64000549316405px" xmlns="http://www.w3.org/2000/svg" viewBox="-10.301257324218739 12.679997253417973 520.6025146484375 124.64000549316405" style="background: none;" preserveAspectRatio="xMidYMid"><defs><filter id="editing-extrusion" x="-100%" y="-100%" width="300%" height="300%"><feFlood result="color1" flood-color="#1d0e0b"></feFlood><feConvolveMatrix order="8,8" divisor="1" kernelMatrix="1 0 0 0 0 0 0 0 0 1 0 0 0 0 0 0 0 0 1 0 0 0 0 0 0 0 0 1 0 0 0 0 0 0 0 0 1 0 0 0 0 0 0 0 0 1 0 0 0 0 0 0 0 0 1 0 0 0 0 0 0 0 0 1" in="SourceAlpha" result="extrude"></feConvolveMatrix><feComposite in="color1" in2="extrude" result="comp-extrude" operator="in"></feComposite><feOffset dx="4" dy="4" in="comp-extrude" result="offset-extrude"></feOffset><feMerge><feMergeNode in="offset-extrude"></feMergeNode><feMergeNode in="SourceGraphic"></feMergeNode></feMerge></filter></defs><g filter="url(#editing-extrusion)"><g transform="translate(67.56002402305603, 98.04500007629395)"><path d="M21.75 0L14.72 0L1.91-44.81L8.31-44.81L18.25-9.16L28.16-44.81L34.56-44.81L44.47-9.16L54.41-44.81L60.81-44.81L48 0L40.97 0L31.38-33.59L21.75 0ZM65.94-6.16L65.94-14.53L65.94-14.53Q65.94-15.81 66.42-16.92L66.42-16.92L66.42-16.92Q66.91-18.03 67.73-18.88L67.73-18.88L67.73-18.88Q68.56-19.72 69.69-20.20L69.69-20.20L69.69-20.20Q70.81-20.69 72.06-20.69L72.06-20.69L87.94-20.69L87.94-27.13L67.84-27.13L67.84-33.28L87.94-33.28L87.94-33.28Q89.22-33.28 90.34-32.80L90.34-32.80L90.34-32.80Q91.47-32.31 92.30-31.48L92.30-31.48L92.30-31.48Q93.13-30.66 93.61-29.53L93.61-29.53L93.61-29.53Q94.09-28.41 94.09-27.13L94.09-27.13L94.09 0L87.94 0L87.94-5.63L87.94-5.63Q87.84-4.47 87.31-3.44L87.31-3.44L87.31-3.44Q86.78-2.41 85.95-1.64L85.95-1.64L85.95-1.64Q85.13-0.88 84.06-0.44L84.06-0.44L84.06-0.44Q83 0 81.81 0L81.81 0L72.06 0L72.06 0Q70.81 0 69.69-0.48L69.69-0.48L69.69-0.48Q68.56-0.97 67.73-1.80L67.73-1.80L67.73-1.80Q66.91-2.63 66.42-3.75L66.42-3.75L66.42-3.75Q65.94-4.88 65.94-6.16L65.94-6.16ZM72.06-14.53L72.06-6.16L87.94-6.16L87.94-14.53L72.06-14.53ZM102.41-27.13L102.41-33.28L110.53-33.28L110.53-43.53L116.69-43.53L116.69-33.28L127.63-33.28L127.63-27.13L116.69-27.13L116.69-6.16L127.63-6.16L127.63 0L116.69 0L116.69 0Q115.44 0 114.31-0.48L114.31-0.48L114.31-0.48Q113.19-0.97 112.34-1.80L112.34-1.80L112.34-1.80Q111.50-2.63 111.02-3.75L111.02-3.75L111.02-3.75Q110.53-4.88 110.53-6.16L110.53-6.16L110.53-27.13L102.41-27.13ZM159.88-27.13L144-27.13L144-6.16L159.88-6.16L159.88-11.78L166.03-11.78L166.03-6.16L166.03-6.16Q166.03-4.88 165.55-3.75L165.55-3.75L165.55-3.75Q165.06-2.63 164.23-1.80L164.23-1.80L164.23-1.80Q163.41-0.97 162.28-0.48L162.28-0.48L162.28-0.48Q161.16 0 159.88 0L159.88 0L144 0L144 0Q142.75 0 141.63-0.48L141.63-0.48L141.63-0.48Q140.50-0.97 139.67-1.80L139.67-1.80L139.67-1.80Q138.84-2.63 138.36-3.75L138.36-3.75L138.36-3.75Q137.88-4.88 137.88-6.16L137.88-6.16L137.88-27.13L137.88-27.13Q137.88-28.41 138.36-29.53L138.36-29.53L138.36-29.53Q138.84-30.66 139.67-31.48L139.67-31.48L139.67-31.48Q140.50-32.31 141.63-32.80L141.63-32.80L141.63-32.80Q142.75-33.28 144-33.28L144-33.28L159.88-33.28L159.88-33.28Q161.16-33.28 162.28-32.80L162.28-32.80L162.28-32.80Q163.41-32.31 164.23-31.48L164.23-31.48L164.23-31.48Q165.06-30.66 165.55-29.53L165.55-29.53L165.55-29.53Q166.03-28.41 166.03-27.13L166.03-27.13L166.03-21.50L159.88-21.50L159.88-27.13ZM205.72-27.13L205.72 0L199.56 0L199.56-27.13L182.41-27.13L182.41 0L176.28 0L176.28-46.09L182.41-46.09L182.41-27.41L182.41-27.41Q182.47-28.63 182.97-29.70L182.97-29.70L182.97-29.70Q183.47-30.78 184.30-31.58L184.30-31.58L184.30-31.58Q185.13-32.38 186.22-32.83L186.22-32.83L186.22-32.83Q187.31-33.28 188.56-33.28L188.56-33.28L199.56-33.28L199.56-33.28Q200.84-33.28 201.97-32.80L201.97-32.80L201.97-32.80Q203.09-32.31 203.92-31.48L203.92-31.48L203.92-31.48Q204.75-30.66 205.23-29.53L205.23-29.53L205.23-29.53Q205.72-28.41 205.72-27.13L205.72-27.13ZM212.13-9.28L212.13-15.44L234.22-44.81L241.75-44.81L241.75-15.44L247.78-15.44L247.78-9.28L241.75-9.28L241.75 0L235.34 0L235.34-9.28L212.13-9.28ZM219.09-15.44L235.34-15.44L235.34-37.06L219.09-15.44ZM250.97-44.81L258.41-44.81L271.44-23.88L284.50-44.81L291.94-44.81L274.66-17.78L274.66 0L268.25 0L268.25-17.78L250.97-44.81ZM323.28-27.13L323.28-6.16L323.28-6.16Q323.28-4.88 322.80-3.75L322.80-3.75L322.80-3.75Q322.31-2.63 321.48-1.80L321.48-1.80L321.48-1.80Q320.66-0.97 319.55-0.48L319.55-0.48L319.55-0.48Q318.44 0 317.16 0L317.16 0L300.63 0L300.63 0Q299.38 0 298.25-0.48L298.25-0.48L298.25-0.48Q297.13-0.97 296.30-1.80L296.30-1.80L296.30-1.80Q295.47-2.63 294.98-3.75L294.98-3.75L294.98-3.75Q294.50-4.88 294.50-6.16L294.50-6.16L294.50-27.13L294.50-27.13Q294.50-28.41 294.98-29.53L294.98-29.53L294.98-29.53Q295.47-30.66 296.30-31.48L296.30-31.48L296.30-31.48Q297.13-32.31 298.25-32.80L298.25-32.80L298.25-32.80Q299.38-33.28 300.63-33.28L300.63-33.28L317.16-33.28L317.16-33.28Q318.44-33.28 319.55-32.80L319.55-32.80L319.55-32.80Q320.66-32.31 321.48-31.48L321.48-31.48L321.48-31.48Q322.31-30.66 322.80-29.53L322.80-29.53L322.80-29.53Q323.28-28.41 323.28-27.13L323.28-27.13ZM317.16-27.13L300.63-27.13L300.63-6.16L317.16-6.16L317.16-27.13ZM333.53-6.16L333.53-33.28L339.66-33.28L339.66-6.16L356.81-6.16L356.81-33.28L362.97-33.28L362.97 0L356.81 0L356.81-5.63L356.81-5.63Q356.72-4.47 356.19-3.44L356.19-3.44L356.19-3.44Q355.66-2.41 354.83-1.64L354.83-1.64L354.83-1.64Q354-0.88 352.94-0.44L352.94-0.44L352.94-0.44Q351.88 0 350.69 0L350.69 0L339.66 0L339.66 0Q338.41 0 337.28-0.48L337.28-0.48L337.28-0.48Q336.16-0.97 335.33-1.80L335.33-1.80L335.33-1.80Q334.50-2.63 334.02-3.75L334.02-3.75L334.02-3.75Q333.53-4.88 333.53-6.16L333.53-6.16Z" fill="#fefae0"></path></g></g><style>text {
  font-size: 64px;
  font-family: Arial Black;
  dominant-baseline: central;
  text-anchor: middle;
}</style></svg>